<svg width="30" height="30" viewBox="0 0 30 30" fill="none" xmlns="http://www.w3.org/2000/svg">
<path d="M24.8438 21.5625C25.6204 21.5625 26.25 22.1921 26.25 22.9688C26.25 23.7454 25.6204 24.375 24.8438 24.375H5.15625C4.3796 24.375 3.75 23.7454 3.75 22.9688C3.75 22.1921 4.3796 21.5625 5.15625 21.5625H24.8438ZM24.8438 14.0625C25.6204 14.0625 26.25 14.6921 26.25 15.4688C26.25 16.2454 25.6204 16.875 24.8438 16.875H5.15625C4.3796 16.875 3.75 16.2454 3.75 15.4688C3.75 14.6921 4.3796 14.0625 5.15625 14.0625H24.8438ZM24.8438 6.5625C25.6204 6.5625 26.25 7.1921 26.25 7.96875C26.25 8.7454 25.6204 9.375 24.8438 9.375H5.15625C4.3796 9.375 3.75 8.7454 3.75 7.96875C3.75 7.1921 4.3796 6.5625 5.15625 6.5625H24.8438Z" fill="#0046B6"/>
</svg>
