<svg width="30" height="30" viewBox="0 0 30 30" fill="none" xmlns="http://www.w3.org/2000/svg">
<path d="M27.3396 1.13184H2.6623C1.81705 1.13184 1.13184 1.81705 1.13184 2.6623V27.3396C1.13184 28.1849 1.81705 28.8701 2.6623 28.8701H27.3396C28.1849 28.8701 28.8701 28.1849 28.8701 27.3396V2.6623C28.8701 1.81705 28.1849 1.13184 27.3396 1.13184Z" fill="#3D5A98"/>
<path d="M20.2689 28.8684V18.127H23.8736L24.4127 13.941H20.2689V11.2691C20.2689 10.0574 20.6064 9.23008 22.3432 9.23008H24.5604V5.48008C23.4867 5.36839 22.4078 5.31518 21.3283 5.3207C18.1361 5.3207 15.9377 7.26601 15.9377 10.8543V13.941H12.333V18.127H15.9377V28.8684H20.2689Z" fill="white"/>
</svg>
