<svg width="472" height="255" viewBox="0 0 472 255" fill="none" xmlns="http://www.w3.org/2000/svg">
<path d="M437.759 67.779C453.356 67.779 466 54.8448 466 38.8895C466 22.9343 453.356 10 437.759 10C422.163 10 409.519 22.9343 409.519 38.8895C409.519 54.8448 422.163 67.779 437.759 67.779Z" fill="#B4C0FC"/>
<path d="M207.327 67.779C222.924 67.779 235.567 54.8448 235.567 38.8895C235.567 22.9343 222.924 10 207.327 10C191.73 10 179.087 22.9343 179.087 38.8895C179.087 54.8448 191.73 67.779 207.327 67.779Z" fill="#B4C0FC"/>
<path d="M189.528 108.928C189.528 98.8726 197.497 90.7207 207.327 90.7207C217.157 90.7207 225.126 98.8726 225.126 108.928C225.126 138.079 237.361 164.311 256.899 182.435L260.908 185.955L261.024 186.05C277.736 200.178 299.146 208.585 322.543 208.585C376.42 208.585 419.96 163.947 419.96 108.928C419.96 98.8729 427.929 90.7212 437.759 90.7207C447.588 90.7207 455.557 98.8726 455.557 108.928C455.557 184.034 396.104 245 322.543 245C290.646 245 261.266 233.495 238.347 214.12C208.544 189.303 189.528 151.33 189.528 108.928Z" fill="#B4C0FC"/>
<path d="M10 108.928C10 98.8726 17.9687 90.7207 27.7986 90.7207C37.6285 90.7207 45.5972 98.8726 45.5972 108.928C45.5972 163.921 89.2307 208.583 143.13 208.585C166.519 208.585 187.952 200.181 204.811 186.015L204.927 185.92C210.024 181.708 214.667 176.86 218.739 171.577C224.826 163.68 236.026 162.328 243.746 168.554C251.46 174.78 252.783 186.228 246.7 194.123C241.074 201.423 234.592 208.183 227.395 214.144L227.407 214.156C204.397 233.492 175.036 245 143.13 245C69.5948 244.998 10 184.057 10 108.928Z" fill="#B4C0FC"/>
</svg>
