<svg width="367" height="50" viewBox="0 0 367 50" fill="none" xmlns="http://www.w3.org/2000/svg">
<path d="M51.583 29.711C53.3978 29.711 54.8691 28.2302 54.8691 26.4036C54.8691 24.577 53.3978 23.0962 51.583 23.0962C49.7681 23.0962 48.2969 24.577 48.2969 26.4036C48.2969 28.2302 49.7681 29.711 51.583 29.711Z" fill="white"/>
<path d="M24.7698 29.711C26.5846 29.711 28.0558 28.2302 28.0558 26.4036C28.0558 24.577 26.5846 23.0962 24.7698 23.0962C22.9549 23.0962 21.4837 24.577 21.4837 26.4036C21.4837 28.2302 22.9549 29.711 24.7698 29.711Z" fill="white"/>
<path d="M22.6987 34.4219C22.6987 33.2707 23.626 32.3374 24.7698 32.3374C25.9136 32.3374 26.8408 33.2707 26.8408 34.4219C26.8408 37.7593 28.2646 40.7624 30.538 42.8373L31.0045 43.2403L31.018 43.2512C32.9626 44.8686 35.4538 45.831 38.1763 45.831C44.4455 45.831 49.5118 40.7207 49.5118 34.4219C49.5118 33.2707 50.4391 32.3375 51.5829 32.3374C52.7267 32.3374 53.6539 33.2707 53.6539 34.4219C53.6539 43.0204 46.7359 50 38.1763 50C34.4648 50 31.0462 48.6828 28.3793 46.4648C24.9113 43.6235 22.6987 39.2763 22.6987 34.4219Z" fill="white"/>
<path d="M1.80872 34.4219C1.80872 33.2707 2.73596 32.3374 3.87977 32.3374C5.02358 32.3374 5.95082 33.2707 5.95082 34.4219C5.95082 40.7178 11.028 45.8308 17.2998 45.831C20.0213 45.831 22.5153 44.8689 24.477 43.2471L24.4905 43.2363C25.0836 42.7541 25.6239 42.199 26.0977 41.5942C26.8059 40.6901 28.1093 40.5353 29.0075 41.2481C29.9051 41.9609 30.059 43.2715 29.3513 44.1754C28.6966 45.0111 27.9423 45.7851 27.1049 46.4675L27.1063 46.4688C24.4288 48.6825 21.0124 50 17.2998 50C8.74319 49.9998 1.80872 43.023 1.80872 34.4219Z" fill="white"/>
<path d="M26.8131 15.5781C26.8131 12.018 25.1928 8.83807 22.6494 6.75968L22.6359 6.74882C20.6913 5.13142 18.2001 4.16899 15.4776 4.16899C9.20848 4.16902 4.14213 9.27935 4.1421 15.5781C4.1421 16.7293 3.21486 17.6626 2.07105 17.6626C0.927241 17.6626 0 16.7293 0 15.5781C2.91462e-05 6.97968 6.91808 2.93478e-05 15.4776 0C19.1824 0 22.5951 1.31221 25.2598 3.52301C28.7363 6.364 30.9552 10.7168 30.9552 15.5781C30.9552 16.7293 30.028 17.6626 28.8842 17.6626C27.7404 17.6625 26.8131 16.7293 26.8131 15.5781Z" fill="white"/>
<path d="M47.6888 15.5781C47.6887 9.28213 42.6117 4.16899 36.3398 4.16899C33.6185 4.16905 31.1255 5.13119 29.1639 6.75289L29.1504 6.76375C28.5572 7.246 28.0158 7.80078 27.5419 8.40583C26.8336 9.30968 25.5316 9.46463 24.6335 8.75189C23.7353 8.03909 23.5815 6.72866 24.2897 5.82464C24.8656 5.0894 25.5168 4.40044 26.2353 3.78086L26.5468 3.5203C29.2223 1.31308 32.6332 6.34417e-05 36.3398 0C44.8966 0 51.8308 6.97686 51.8309 15.5781C51.8309 16.7293 50.9036 17.6626 49.7598 17.6626C48.6163 17.6622 47.6888 16.7291 47.6888 15.5781Z" fill="white"/>
<path d="M346.882 7.8594C348.348 7.94527 349.671 8.17427 350.85 8.54639C352.057 8.88989 353.063 9.39082 353.868 10.0492C354.702 10.7076 355.32 11.509 355.723 12.4537C356.154 13.3983 356.312 14.4717 356.197 15.6739C355.996 17.7349 355.09 19.3236 353.48 20.4399C351.87 21.5563 349.685 22.1145 346.925 22.1145C346.178 22.1145 345.459 22.1145 344.769 22.1145C344.108 22.0859 343.446 22.0429 342.785 21.9857C342.124 21.8998 341.477 21.771 340.845 21.5993C340.212 21.4275 339.565 21.1842 338.904 20.8693C337.639 20.211 336.776 19.3522 336.316 18.2931C335.885 17.2054 335.67 16.1033 335.67 14.9869C335.67 12.5252 336.633 10.7219 338.559 9.57688C340.514 8.43189 343.288 7.8594 346.882 7.8594ZM365.081 38.0441C365.11 38.0441 365.21 38.0728 365.383 38.13C365.555 38.1873 365.742 38.2731 365.943 38.3876C366.173 38.5308 366.375 38.7025 366.547 38.9029C366.748 39.1319 366.878 39.3895 366.935 39.6757C367.108 40.7635 366.935 41.6079 366.418 42.209C366.102 42.6098 365.757 42.8531 365.383 42.939C365.009 43.0248 364.808 43.0678 364.779 43.0678H342.268C341.175 43.0678 340.313 42.8817 339.68 42.5096C339.048 42.1661 338.731 41.6652 338.731 41.0068V37.1854C338.674 36.5557 338.674 35.9116 338.731 35.2532C338.789 34.6521 339.019 34.1655 339.421 33.7934C339.824 33.4212 340.327 33.2352 340.931 33.2352C341.075 33.2352 341.261 33.2495 341.491 33.2781C341.75 33.2781 341.951 33.3068 342.095 33.364C342.469 33.4785 342.756 33.6502 342.958 33.8792C343.159 34.1082 343.317 34.3802 343.432 34.695C343.547 34.9813 343.619 35.2962 343.648 35.6397C343.676 35.9545 343.705 36.2694 343.734 36.5843C343.734 36.8133 343.748 37.0566 343.777 37.3142C343.806 37.5432 343.849 37.7579 343.906 37.9583C343.964 37.9869 344.223 38.0155 344.683 38.0441C345.171 38.1014 345.919 38.13 346.925 38.13C347.788 38.13 348.55 38.1157 349.211 38.0871C349.901 38.0584 350.26 38.0441 350.289 38.0441H365.081ZM366.116 29.8432C366.087 30.0149 366.044 30.2439 365.987 30.5302C365.958 30.7878 365.915 31.0597 365.857 31.346C365.828 31.6322 365.785 31.9041 365.728 32.1618C365.67 32.3908 365.613 32.5911 365.555 32.7629C365.412 33.1064 365.182 33.4212 364.865 33.7075C364.549 33.9079 364.204 34.0224 363.83 34.051C363.485 34.0796 363.155 34.0653 362.838 34.0081C362.637 33.9508 362.45 33.9079 362.278 33.8792C362.134 33.8506 361.99 33.7647 361.847 33.6216C361.07 32.8488 360.725 31.761 360.812 30.3584L360.898 22.0286C359.863 22.0286 358.885 21.9571 357.965 21.8139C357.045 21.6422 356.413 21.313 356.068 20.8264C355.867 20.5401 355.766 20.211 355.766 19.8388C355.766 19.4667 355.852 19.1089 356.025 18.7654C356.197 18.3933 356.427 18.0927 356.715 17.8637C357.002 17.6061 357.318 17.463 357.663 17.4344C358.008 17.4344 358.468 17.42 359.043 17.3914C359.618 17.3628 360.237 17.3485 360.898 17.3485V12.6254C360.898 12.3105 360.898 11.9527 360.898 11.552C360.898 11.1512 360.912 10.7648 360.941 10.3927C360.998 9.99194 361.085 9.61982 361.2 9.27632C361.315 8.93282 361.458 8.66089 361.631 8.46052C361.947 8.14564 362.263 7.95958 362.58 7.90233C362.896 7.84508 363.227 7.81646 363.572 7.81646C364.578 7.81646 365.268 8.30308 365.642 9.27632C365.872 9.90606 366.001 10.5358 366.03 11.1656C366.058 11.7953 366.087 12.4394 366.116 13.0977V13.3124C366.173 15.4879 366.188 17.649 366.159 19.7959C366.13 21.9141 366.116 23.9894 366.116 26.0218V29.8432ZM349.47 28.9844C349.498 30.2725 349.426 31.3746 349.254 32.2906C349.11 33.2066 348.708 33.8649 348.046 34.2657C347.701 34.4661 347.299 34.5949 346.839 34.6521C346.408 34.6807 345.976 34.6378 345.545 34.5233C345.143 34.4088 344.783 34.2371 344.467 34.0081C344.18 33.7504 344.021 33.4499 343.993 33.1064C343.935 32.7343 343.892 32.1761 343.863 31.4318C343.863 30.6876 343.863 29.8575 343.863 28.9415C343.145 28.9129 342.282 28.8842 341.276 28.8556C340.27 28.7984 339.393 28.7697 338.645 28.7697C338.243 28.7125 337.84 28.6552 337.438 28.598C337.035 28.5121 336.661 28.2831 336.316 27.911C335.971 27.5675 335.799 27.0666 335.799 26.4082C335.799 25.8071 335.971 25.3062 336.316 24.9054C336.518 24.6764 336.762 24.5047 337.05 24.3902C337.366 24.2757 337.668 24.1898 337.955 24.1325C338.243 24.0753 338.487 24.0467 338.688 24.0467C338.918 24.0467 339.048 24.0467 339.076 24.0467H353.825C354.4 23.9894 354.99 23.9894 355.593 24.0467C356.226 24.1039 356.758 24.3329 357.189 24.7337C357.735 25.2775 358.008 25.893 358.008 26.5799C358.008 27.0093 357.893 27.4101 357.663 27.7822C357.433 28.1257 357.117 28.369 356.715 28.5121C356.197 28.7411 355.622 28.8842 354.99 28.9415C354.386 28.9987 353.811 29.013 353.265 28.9844H349.47ZM350.591 15.8457C350.735 15.0156 350.562 14.3286 350.073 13.7847C349.613 13.2122 348.923 12.7972 348.003 12.5395C347.4 12.3678 346.71 12.2676 345.933 12.239C345.186 12.1817 344.453 12.2247 343.734 12.3678C343.044 12.5109 342.44 12.7685 341.923 13.1407C341.405 13.4841 341.089 13.9708 340.974 14.6005C340.801 15.4593 340.988 16.2035 341.535 16.8332C342.11 17.463 343.231 17.8494 344.898 17.9925C345.473 18.0498 346.063 18.0784 346.666 18.0784C347.27 18.0784 347.831 18.0212 348.348 17.9067C348.895 17.7635 349.355 17.5632 349.728 17.3055C350.131 17.0193 350.404 16.6186 350.548 16.1033L350.591 15.8457Z" fill="white"/>
<path d="M302.503 26.7088C301.353 25.9073 300.533 24.7623 300.045 23.2738C299.757 22.5296 299.556 21.8139 299.441 21.1269C299.355 20.44 299.312 19.7386 299.312 19.023C299.312 18.2788 299.369 17.5918 299.484 16.962C299.628 16.3037 299.815 15.6596 300.045 15.0299C300.332 14.4288 300.634 13.8706 300.95 13.3553C301.295 12.8115 301.698 12.3392 302.158 11.9384C302.618 11.4518 303.092 11.0367 303.581 10.6932C304.098 10.3497 304.688 10.0635 305.349 9.8345C305.924 9.54825 306.542 9.34788 307.203 9.23338C307.893 9.09026 308.612 9.0187 309.36 9.0187C309.877 8.93282 310.38 8.93282 310.869 9.0187C311.099 9.0187 311.343 9.03301 311.602 9.06163C311.89 9.09026 312.148 9.13319 312.378 9.19044C312.493 9.24769 312.608 9.27632 312.723 9.27632C312.867 9.27632 313.011 9.30494 313.155 9.36219C313.298 9.36219 313.428 9.39082 313.543 9.44807C313.687 9.47669 313.802 9.51963 313.888 9.57688C314.204 9.66275 314.492 9.76294 314.75 9.87744C315.038 9.96331 315.325 10.0778 315.613 10.2209C316.102 10.4499 316.59 10.7076 317.079 10.9938C317.252 11.0797 317.438 11.2085 317.64 11.3802C317.87 11.552 318.085 11.738 318.287 11.9384C318.804 12.4537 319.221 12.9832 319.537 13.5271C319.71 13.8133 319.853 14.1139 319.969 14.4288C320.112 14.7436 320.213 15.0871 320.27 15.4593C320.357 15.7741 320.428 16.1033 320.486 16.4468C320.543 16.7617 320.601 17.0765 320.659 17.3914C320.716 17.7063 320.759 18.0212 320.788 18.336C320.817 18.6509 320.802 18.9944 320.745 19.3665C320.745 19.5383 320.73 19.7386 320.702 19.9676C320.673 20.168 320.659 20.3541 320.659 20.5258C320.601 20.7548 320.558 20.9838 320.529 21.2128C320.5 21.4418 320.443 21.6422 320.357 21.8139C320.184 22.9303 319.825 23.9608 319.279 24.9054C318.962 25.392 318.603 25.8214 318.2 26.1935C317.827 26.5656 317.395 26.9234 316.907 27.2669C316.533 27.4959 316.159 27.6963 315.785 27.8681C315.412 28.0398 315.023 28.1686 314.621 28.2545C314.247 28.369 313.859 28.4692 313.457 28.555C313.083 28.6123 312.695 28.6839 312.292 28.7697C312.148 28.827 312.005 28.8556 311.861 28.8556C311.717 28.8556 311.573 28.8556 311.43 28.8556C311.343 28.8556 311.228 28.8556 311.085 28.8556C310.97 28.8556 310.84 28.8842 310.697 28.9415H309.92C309.805 28.9415 309.676 28.9415 309.532 28.9415C309.417 28.9415 309.288 28.9129 309.144 28.8556C308.972 28.8556 308.785 28.8556 308.583 28.8556C308.411 28.8556 308.238 28.827 308.066 28.7697C307.836 28.7697 307.62 28.7554 307.419 28.7268C307.247 28.6982 307.06 28.6839 306.858 28.6839C306.082 28.5694 305.335 28.3404 304.616 27.9969C304.213 27.7965 303.84 27.6104 303.495 27.4387C303.15 27.2383 302.819 26.995 302.503 26.7088ZM330.319 16.6615C330.376 17.234 330.405 17.8208 330.405 18.4219C330.405 19.023 330.405 19.6528 330.405 20.3111V27.2669C330.405 27.9253 330.405 28.5407 330.405 29.1132C330.405 29.6857 330.376 30.2439 330.319 30.7878V35.6826C330.261 36.1406 330.247 36.5986 330.275 37.0566C330.304 37.486 330.319 37.901 330.319 38.3018C330.319 38.588 330.319 38.8599 330.319 39.1176C330.319 39.3752 330.29 39.6185 330.232 39.8475C330.232 40.3055 330.132 40.6776 329.93 40.9639C329.873 41.107 329.815 41.2215 329.758 41.3074C329.7 41.4219 329.643 41.5507 329.585 41.6938C329.47 41.7797 329.355 41.8798 329.24 41.9943C329.125 42.1088 328.953 42.209 328.723 42.2949C328.464 42.4953 328.162 42.6241 327.817 42.6813C327.472 42.7386 327.113 42.7386 326.739 42.6813C326.25 42.5668 325.891 42.3808 325.661 42.1232C325.431 41.98 325.215 41.6795 325.014 41.2215C324.928 41.0211 324.856 40.835 324.798 40.6633C324.741 40.4916 324.712 40.3055 324.712 40.1051C324.655 39.962 324.612 39.8189 324.583 39.6757C324.554 39.5326 324.54 39.4181 324.54 39.3323V38.8599L324.453 13.3983C324.453 13.0262 324.453 12.654 324.453 12.2819C324.482 11.9098 324.54 11.4947 324.626 11.0367C324.712 10.2639 324.971 9.63413 325.402 9.14751C325.805 8.86126 326.121 8.6752 326.351 8.58933C326.552 8.53208 326.739 8.50345 326.912 8.50345C327.113 8.50345 327.329 8.50345 327.559 8.50345C327.789 8.50345 328.019 8.53208 328.249 8.58933C328.479 8.64657 328.709 8.74676 328.939 8.88988C329.312 9.17613 329.585 9.53394 329.758 9.96331C329.902 10.2782 330.017 10.5931 330.103 10.9079C330.189 11.2228 330.232 11.5377 330.232 11.8525C330.232 12.1674 330.232 12.5109 330.232 12.883C330.232 13.2265 330.261 13.5557 330.319 13.8706V16.6615ZM320.831 33.6646C321.205 33.7791 321.535 33.9365 321.823 34.1369C322.11 34.4231 322.326 34.7094 322.47 34.9956C322.642 35.2819 322.729 35.5967 322.729 35.9402C322.729 36.4268 322.57 36.8562 322.254 37.2283C321.967 37.6005 321.65 37.8438 321.305 37.9583C321.162 38.0155 321.018 38.0584 320.874 38.0871C320.73 38.1157 320.587 38.13 320.443 38.13C320.27 38.1873 320.112 38.2159 319.969 38.2159C319.825 38.2159 319.681 38.2159 319.537 38.2159H315.44C314.952 38.2159 314.448 38.2159 313.931 38.2159C313.442 38.2159 312.925 38.2445 312.378 38.3018H309.36C308.842 38.2445 308.382 38.2159 307.98 38.2159C307.577 38.2159 307.175 38.2159 306.772 38.2159H302.244C301.957 38.2159 301.683 38.2016 301.425 38.173C301.166 38.1443 300.893 38.1014 300.605 38.0441C300.462 37.9869 300.318 37.9296 300.174 37.8724C300.059 37.8438 299.93 37.8008 299.786 37.7436C299.527 37.6577 299.283 37.5289 299.053 37.3571C298.88 37.1568 298.736 36.9421 298.621 36.7131C298.535 36.4555 298.492 36.1406 298.492 35.7685C298.492 35.2246 298.679 34.738 299.053 34.3086C299.225 34.051 299.498 33.8792 299.872 33.7934C300.045 33.7361 300.217 33.6932 300.39 33.6646C300.562 33.6073 300.72 33.5501 300.864 33.4928C301.065 33.4356 301.223 33.4069 301.338 33.4069C301.453 33.4069 301.568 33.4069 301.683 33.4069H317.985C318.272 33.4069 318.545 33.4069 318.804 33.4069C319.063 33.4069 319.307 33.4356 319.537 33.4928C319.767 33.4928 319.983 33.5071 320.184 33.5358C320.385 33.5644 320.601 33.6073 320.831 33.6646ZM305.047 18.2502C304.961 18.794 304.961 19.3665 305.047 19.9676C305.191 20.6546 305.378 21.2128 305.608 21.6422C306.183 22.5296 307.031 23.1879 308.152 23.6173C308.555 23.7604 308.957 23.8606 309.36 23.9179C309.791 23.9751 310.208 24.0037 310.61 24.0037C310.84 23.9465 311.056 23.9179 311.257 23.9179C311.458 23.9179 311.674 23.8892 311.904 23.832C312.105 23.832 312.292 23.789 312.465 23.7032C312.666 23.6173 312.867 23.5314 313.068 23.4455C313.615 23.1879 314.075 22.7586 314.448 22.1574C314.65 21.8426 314.793 21.542 314.88 21.2558C314.966 20.9695 315.052 20.6689 315.138 20.3541C315.253 19.8675 315.282 19.4095 315.225 18.9801C315.196 18.5507 315.11 18.0927 314.966 17.6061C314.908 17.4057 314.822 17.2197 314.707 17.0479C314.621 16.8475 314.535 16.6758 314.448 16.5327C314.362 16.4468 314.29 16.3609 314.233 16.2751C314.175 16.1606 314.089 16.0747 313.974 16.0174C313.888 15.8171 313.715 15.631 313.457 15.4593C313.227 15.3161 312.997 15.2016 312.767 15.1158C312.652 15.0299 312.522 14.9583 312.378 14.9011C312.263 14.8438 312.134 14.7866 311.99 14.7293C311.243 14.5576 310.481 14.4717 309.705 14.4717C309.331 14.4717 308.972 14.5003 308.627 14.5576C308.282 14.6148 307.951 14.715 307.635 14.8581C307.318 15.0013 307.017 15.173 306.729 15.3734C306.442 15.5451 306.183 15.7884 305.953 16.1033C305.723 16.3896 305.536 16.7187 305.392 17.0909C305.277 17.4344 305.162 17.8208 305.047 18.2502Z" fill="white"/>
<path d="M294.34 22.6298C294.512 22.6298 294.671 22.6441 294.814 22.6727C294.987 22.7013 295.159 22.73 295.332 22.7586C295.648 22.8158 295.964 22.9303 296.281 23.1021C296.597 23.2452 296.841 23.4742 297.014 23.7891C297.186 24.1326 297.272 24.519 297.272 24.9484C297.272 25.1487 297.272 25.3491 297.272 25.5495C297.272 25.7499 297.244 25.9502 297.186 26.1506C297.129 26.3796 297.057 26.6229 296.971 26.8805C296.884 27.1382 296.755 27.3385 296.582 27.4817C296.209 27.7679 295.806 27.954 295.375 28.0398C294.8 28.1257 294.225 28.1687 293.65 28.1687C293.075 28.14 292.486 28.1114 291.882 28.0828C291.882 28.7411 291.867 29.4711 291.839 30.2726C291.839 31.0454 291.839 31.8469 291.839 32.677C291.839 33.5072 291.839 34.3373 291.839 35.1674C291.839 35.9689 291.839 36.7131 291.839 37.4001C291.839 37.7722 291.839 38.173 291.839 38.6024C291.839 39.0603 291.796 39.504 291.709 39.9334C291.652 40.3628 291.551 40.7778 291.407 41.1786C291.292 41.5793 291.106 41.9085 290.847 42.1661C290.416 42.5382 289.912 42.7243 289.337 42.7243C288.647 42.6957 288.087 42.481 287.656 42.0803C287.253 41.7081 286.951 41.2501 286.75 40.7063C286.549 40.1624 286.419 39.5899 286.362 38.9888C286.304 38.4163 286.276 37.9011 286.276 37.4431V11.9384C286.276 11.9098 286.276 11.781 286.276 11.552C286.276 11.2944 286.29 11.0081 286.319 10.6933C286.376 10.3498 286.462 10.0063 286.577 9.66279C286.721 9.29066 286.908 8.9901 287.138 8.76111C287.368 8.56073 287.67 8.41761 288.044 8.33174C288.417 8.21724 288.762 8.15999 289.079 8.15999C289.74 8.15999 290.286 8.37467 290.717 8.80404C291.091 9.20479 291.307 9.63416 291.364 10.0922C291.451 10.5215 291.522 10.9795 291.58 11.4661C291.609 11.781 291.637 12.2533 291.666 12.8831C291.724 13.5128 291.767 14.2141 291.796 14.987C291.824 15.7312 291.839 16.5184 291.839 17.3485C291.867 18.1786 291.882 18.9515 291.882 19.6671C291.911 20.3827 291.925 21.0125 291.925 21.5563C291.925 22.0716 291.925 22.4151 291.925 22.5868L294.34 22.6298ZM263.462 15.0299C262.887 14.6864 262.514 14.1855 262.341 13.5271C262.197 12.926 262.255 12.4108 262.514 11.9814C262.686 11.6951 262.844 11.4375 262.988 11.2085C263.132 10.9795 263.319 10.7935 263.549 10.6503C263.779 10.5072 264.095 10.407 264.497 10.3498C264.9 10.2639 265.446 10.221 266.136 10.221H276.659C279.994 10.3641 282.006 11.3803 282.696 13.2695C282.955 14.0137 283.099 14.7723 283.127 15.5452C283.185 16.2894 283.199 17.0336 283.171 17.7779V18.4649C283.171 18.6366 283.171 18.8942 283.171 19.2377C283.171 19.5526 283.171 19.8961 283.171 20.2682C283.171 20.6404 283.171 20.9839 283.171 21.2987C283.199 21.6136 283.214 21.8569 283.214 22.0287C283.214 22.7156 283.214 23.417 283.214 24.1326C283.242 24.8196 283.228 25.5066 283.171 26.1935C283.171 26.4512 283.127 26.809 283.041 27.267C282.955 27.725 282.826 28.1973 282.653 28.6839C282.509 29.1419 282.308 29.5713 282.049 29.972C281.791 30.3728 281.474 30.659 281.101 30.8307C280.698 31.0025 280.296 31.0884 279.893 31.0884C279.232 31.0884 278.657 30.8307 278.168 30.3155C277.679 29.8003 277.363 29.1133 277.219 28.2545C277.162 27.9397 277.119 26.9378 277.09 25.2489C277.061 23.5315 277.047 21.3846 277.047 18.8084V17.2197C277.018 16.9335 276.946 16.6472 276.831 16.361C276.716 16.0747 276.515 15.903 276.227 15.8457C275.969 15.7885 275.724 15.7455 275.494 15.7169C275.293 15.6883 275.207 15.674 275.236 15.674C275.149 15.674 275.02 15.674 274.847 15.674C274.675 15.674 274.359 15.674 273.899 15.674C273.467 15.6453 272.835 15.631 272.001 15.631C271.167 15.6024 270.046 15.5881 268.637 15.5881C268.407 15.5881 268.177 15.6024 267.947 15.631C267.717 15.631 267.487 15.631 267.257 15.631C266.999 15.631 266.725 15.631 266.438 15.631C266.15 15.631 265.805 15.6024 265.403 15.5452C265.087 15.4879 264.756 15.445 264.411 15.4163C264.095 15.3591 263.779 15.2303 263.462 15.0299ZM283.214 34.738C283.53 34.9384 283.774 35.2103 283.947 35.5538C284.119 35.8687 284.22 36.2122 284.249 36.5843C284.306 36.9564 284.292 37.3286 284.206 37.7007C284.148 38.0728 284.047 38.3877 283.904 38.6453C283.645 39.1033 283.271 39.3752 282.782 39.4611C282.294 39.5756 281.819 39.6328 281.359 39.6328H264.325C264.325 39.6328 264.239 39.6185 264.066 39.5899C263.894 39.5899 263.692 39.5613 263.462 39.504C263.232 39.4754 262.988 39.4325 262.729 39.3752C262.47 39.318 262.24 39.2464 262.039 39.1605C261.435 38.8457 261.062 38.2589 260.918 37.4001C260.86 36.9421 260.889 36.5127 261.004 36.112C261.148 35.7113 261.364 35.3821 261.651 35.1245C262.169 34.6951 262.7 34.4231 263.247 34.3086C263.822 34.1941 264.354 34.1369 264.842 34.1369C265.044 34.1369 265.475 34.1512 266.136 34.1798C266.797 34.1798 267.631 34.1941 268.637 34.2228L268.767 22.4151C268.882 22.0716 269.054 21.7853 269.284 21.5563C269.514 21.2987 269.787 21.0984 270.104 20.9552C270.42 20.8407 270.75 20.7835 271.095 20.7835C271.728 20.7835 272.289 20.9552 272.777 21.2987C273.266 21.6136 273.582 22.0287 273.726 22.5439C273.755 22.6011 273.769 22.916 273.769 23.4885C273.798 24.061 273.812 24.7623 273.812 25.5924C273.841 26.3939 273.855 27.267 273.855 28.2116C273.884 29.1562 273.899 30.0579 273.899 30.9166C273.899 31.7467 273.899 32.4624 273.899 33.0635C273.899 33.6646 273.899 34.0367 273.899 34.1798V34.2228C273.985 34.2514 274.272 34.2657 274.761 34.2657C275.25 34.2657 275.825 34.2657 276.486 34.2657C277.176 34.2371 277.909 34.2228 278.685 34.2228C279.462 34.2228 280.209 34.2228 280.928 34.2228C281.877 34.2228 282.639 34.3945 283.214 34.738Z" fill="white"/>
<path d="M233.844 28.3404C234.017 28.1686 234.175 27.9683 234.318 27.7393C234.491 27.4816 234.62 27.3099 234.707 27.224V17.5202C234.563 17.5775 234.433 17.5918 234.318 17.5632C234.203 17.5346 234.074 17.5202 233.93 17.5202H232.766C231.76 17.5202 230.883 17.5059 230.135 17.4773C229.417 17.4487 228.957 17.4058 228.755 17.3485C228.238 17.234 227.792 17.0479 227.418 16.7903C227.073 16.5041 226.815 16.1033 226.642 15.5881C226.585 15.3877 226.542 15.2016 226.513 15.0299C226.484 14.8582 226.498 14.6578 226.556 14.4288C226.556 14.1425 226.7 13.7847 226.987 13.3554C227.073 13.2122 227.203 13.0834 227.375 12.9689C227.548 12.8544 227.72 12.7542 227.893 12.6684C228.065 12.5252 228.238 12.4394 228.41 12.4107C228.583 12.3535 228.755 12.2962 228.928 12.239H234.62C234.62 11.9241 234.635 11.5091 234.663 10.9938C234.692 10.4499 234.707 10.0492 234.707 9.79158C234.764 9.41946 234.85 9.09028 234.965 8.80403C235.08 8.48916 235.21 8.20291 235.353 7.94529C235.698 7.40142 236.202 7.04361 236.863 6.87186C237.179 6.72874 237.495 6.67149 237.812 6.70011C238.157 6.72874 238.487 6.81461 238.803 6.95774C239.033 7.04361 239.235 7.17242 239.407 7.34417C239.608 7.48729 239.752 7.65904 239.838 7.85941C240.183 8.26016 240.399 8.6609 240.485 9.06165C240.543 9.29065 240.586 9.53396 240.615 9.79158C240.643 10.0492 240.658 10.3068 240.658 10.5644V12.239H243.59C244.165 12.239 244.683 12.2533 245.143 12.2819C245.603 12.3106 246.034 12.3535 246.437 12.4107C246.839 12.4966 247.199 12.6541 247.515 12.883C247.86 13.0834 248.147 13.3697 248.377 13.7418C248.607 14.1139 248.722 14.5147 248.722 14.944C248.809 15.2589 248.751 15.6167 248.55 16.0175C248.205 16.6758 247.529 17.1195 246.523 17.3485C246.207 17.4058 245.847 17.4344 245.445 17.4344C245.071 17.4344 244.669 17.463 244.237 17.5202C243.777 17.5202 243.245 17.5346 242.642 17.5632C242.038 17.5918 241.377 17.5775 240.658 17.5202C240.658 17.7492 240.643 18.0212 240.615 18.3361C240.615 18.6509 240.615 18.9658 240.615 19.2807C240.615 19.5955 240.615 19.8961 240.615 20.1823C240.615 20.44 240.629 20.6547 240.658 20.8264V25.5495C240.658 25.6926 240.643 25.8357 240.615 25.9788C240.586 26.0933 240.6 26.2365 240.658 26.4082V27.0952C240.802 27.2097 240.931 27.3671 241.046 27.5675C241.19 27.7393 241.377 27.9396 241.607 28.1686C241.808 28.3404 241.966 28.5121 242.081 28.6839C242.225 28.8556 242.368 29.0131 242.512 29.1562C242.656 29.3279 242.785 29.4997 242.9 29.6714C243.044 29.8432 243.202 30.0149 243.375 30.1867C243.518 30.3298 243.662 30.5016 243.806 30.7019C243.95 30.9023 244.108 31.0884 244.28 31.2601C244.367 31.4032 244.453 31.532 244.539 31.6465C244.625 31.761 244.712 31.8612 244.798 31.9471C244.97 32.2047 245.114 32.448 245.229 32.677C245.517 33.0205 245.79 33.3783 246.048 33.7505C246.307 34.0939 246.566 34.4947 246.825 34.9527C247.141 35.3534 247.385 35.7685 247.558 36.1979C247.759 36.5986 247.903 36.9994 247.989 37.4001C248.075 37.8008 248.075 38.2159 247.989 38.6453C247.903 39.0746 247.702 39.4611 247.385 39.8046C246.983 40.1481 246.451 40.3198 245.79 40.3198C245.473 40.3198 245.172 40.2769 244.884 40.191C244.625 40.1338 244.338 40.0336 244.022 39.8904C243.734 39.7187 243.475 39.5326 243.245 39.3323C243.044 39.1605 242.828 38.9888 242.598 38.817C242.34 38.5594 242.095 38.2732 241.865 37.9583C241.635 37.672 241.405 37.4001 241.175 37.1425C240.945 36.8849 240.715 36.6129 240.485 36.3267C240.284 36.0118 240.068 35.6969 239.838 35.3821C239.522 35.0672 239.177 34.6521 238.803 34.1369C238.631 33.8793 238.43 33.6646 238.2 33.4928C237.998 33.2925 237.812 33.1064 237.639 32.9346C237.467 33.1636 237.294 33.3926 237.122 33.6216C236.949 33.822 236.777 34.0367 236.604 34.2657C236.403 34.4947 236.216 34.7094 236.043 34.9098C235.871 35.1101 235.698 35.3248 235.526 35.5538C235.353 35.84 235.152 36.1263 234.922 36.4125C234.721 36.6988 234.505 36.9707 234.275 37.2284C234.103 37.5146 233.902 37.8008 233.672 38.0871C233.47 38.3733 233.226 38.6453 232.938 38.9029C232.363 39.4754 231.817 39.8618 231.3 40.0622C230.811 40.2912 230.308 40.4057 229.79 40.4057C229.647 40.4057 229.503 40.4057 229.359 40.4057C229.244 40.4057 229.115 40.3771 228.971 40.3198C228.367 40.1481 227.922 39.7616 227.634 39.1605C227.433 38.7025 227.375 38.2445 227.462 37.7865C227.519 37.5003 227.577 37.2427 227.634 37.0137C227.692 36.756 227.792 36.5414 227.936 36.3696C228.022 36.1406 228.123 35.9259 228.238 35.7256C228.353 35.4966 228.482 35.2676 228.626 35.0386C228.77 34.8668 228.899 34.6808 229.014 34.4804C229.158 34.28 229.33 34.0796 229.532 33.8793C229.618 33.7934 229.704 33.6932 229.79 33.5787C229.877 33.4642 229.963 33.364 230.049 33.2781L230.567 32.5053C230.653 32.3049 230.753 32.1475 230.868 32.033C230.983 31.8898 231.156 31.6608 231.386 31.346C231.616 31.0884 231.832 30.8307 232.033 30.5731C232.234 30.3155 232.421 30.0722 232.593 29.8432C232.823 29.5856 233.039 29.3279 233.24 29.0703C233.47 28.8127 233.672 28.5694 233.844 28.3404ZM257.434 39.1605C257.376 39.3323 257.347 39.504 257.347 39.6758C257.347 39.8475 257.319 40.0193 257.261 40.191C257.261 40.649 257.132 41.1356 256.873 41.6509C256.643 42.1661 256.327 42.5382 255.924 42.7672C255.608 42.9104 255.263 42.9962 254.889 43.0249C254.544 43.0821 254.214 43.0821 253.897 43.0249C253.265 42.8817 252.805 42.5669 252.517 42.0802C252.23 41.6222 252.043 41.107 251.957 40.5345C251.899 40.3055 251.87 40.0908 251.87 39.8904C251.87 39.6901 251.842 39.4754 251.784 39.2464C251.784 38.8456 251.799 38.3877 251.827 37.8724C251.856 37.3858 251.87 36.8992 251.87 36.4125C251.813 35.3534 251.799 34.3229 251.827 33.3211C251.856 32.2906 251.87 31.2315 251.87 30.1437C251.87 28.9129 251.856 27.682 251.827 26.4512C251.799 25.1917 251.813 23.9322 251.87 22.6727V10.865C251.928 10.636 251.971 10.4356 252 10.2639C252.029 10.0921 252.072 9.92039 252.129 9.74864C252.215 9.5769 252.287 9.41946 252.345 9.27634C252.402 9.13321 252.503 9.01871 252.647 8.93284C252.79 8.78972 252.949 8.67522 253.121 8.58934C253.294 8.47484 253.466 8.4176 253.639 8.4176C253.811 8.36034 253.984 8.31741 254.156 8.28878C254.329 8.26016 254.501 8.24585 254.674 8.24585C255.191 8.24585 255.637 8.38897 256.01 8.67522C256.442 8.93284 256.744 9.31927 256.916 9.83452C257.204 10.407 257.347 11.0224 257.347 11.6808C257.405 12.5682 257.434 13.4412 257.434 14.3C257.434 15.1301 257.434 15.9888 257.434 16.8762C257.52 18.0784 257.52 19.2807 257.434 20.4829V39.1605Z" fill="white"/>
<path d="M190.394 27.2669C189.848 27.7536 189.244 28.2545 188.583 28.7697C187.95 29.285 187.26 29.6571 186.513 29.8861C185.995 30.0292 185.435 30.0149 184.831 29.8432C184.227 29.6714 183.767 29.3709 183.451 28.9415C183.221 28.598 183.106 28.2688 183.106 27.9539C183.106 27.6391 183.164 27.3385 183.279 27.0523C183.422 26.7374 183.595 26.4368 183.796 26.1506C183.997 25.8643 184.213 25.5924 184.443 25.3348C185.305 24.3329 186.154 23.3883 186.987 22.5009C187.85 21.6136 188.77 20.7405 189.747 19.8818C190.064 19.6241 190.48 19.252 190.998 18.7654C191.515 18.2788 192.019 17.7922 192.507 17.3055C193.082 16.7617 193.7 16.1606 194.362 15.5022C194.304 14.6435 194.29 13.8276 194.319 13.0548C194.347 12.3964 194.419 11.7524 194.534 11.1226C194.649 10.4642 194.865 9.97762 195.181 9.66275C195.555 9.31926 196.087 9.10457 196.777 9.0187C197.467 8.9042 198.042 8.91851 198.502 9.06163C199.163 9.26201 199.652 9.6055 199.968 10.0921C200.313 10.5787 200.529 11.1512 200.615 11.8096C200.644 12.0672 200.644 12.3821 200.615 12.7542C200.586 13.1263 200.572 13.4985 200.572 13.8706C200.572 14.2427 200.6 14.6005 200.658 14.944C200.715 15.2875 200.83 15.5594 201.003 15.7598C201.52 16.4468 202.124 17.1624 202.814 17.9067C203.533 18.6509 204.266 19.4095 205.014 20.1823C205.79 20.9552 206.552 21.7424 207.299 22.5439C208.047 23.3167 208.751 24.0896 209.412 24.8625C209.729 25.2346 210.045 25.664 210.361 26.1506C210.677 26.6086 210.893 27.0666 211.008 27.5246C211.152 27.9826 211.152 28.4262 211.008 28.8556C210.864 29.285 210.491 29.6428 209.887 29.929C209.456 30.1294 209.024 30.2153 208.593 30.1867C208.191 30.158 207.788 30.0578 207.386 29.8861C206.983 29.7144 206.609 29.4997 206.264 29.242C205.919 28.9844 205.603 28.7125 205.316 28.4262L197.51 21.2987L190.394 27.2669ZM210.275 35.0815C210.361 35.1101 210.447 35.1244 210.534 35.1244C210.62 35.0958 210.706 35.0815 210.792 35.0815C211.281 35.1387 211.727 35.2389 212.129 35.382C212.561 35.4965 212.977 35.7255 213.38 36.069C213.782 36.4698 213.984 36.9707 213.984 37.5718C213.984 37.8867 213.926 38.2159 213.811 38.5594C213.725 38.9315 213.596 39.2178 213.423 39.4181C213.193 39.6471 212.906 39.8189 212.561 39.9334C212.216 40.0479 211.885 40.1194 211.569 40.1481C211.252 40.2053 210.965 40.2339 210.706 40.2339C210.476 40.2339 210.347 40.2339 210.318 40.2339H186.168C186.024 40.2339 185.88 40.2339 185.737 40.2339C185.593 40.2626 185.449 40.2769 185.305 40.2769C184.702 40.3055 184.055 40.2912 183.365 40.2339C182.675 40.2053 182.085 39.9906 181.597 39.5899C180.993 39.046 180.691 38.4306 180.691 37.7436C180.691 37.3142 180.82 36.8705 181.079 36.4125C181.338 35.9545 181.683 35.6397 182.114 35.4679C182.689 35.2389 183.279 35.1244 183.882 35.1244C184.515 35.1244 185.147 35.1101 185.78 35.0815H185.995C188.784 35.0242 191.63 35.0242 194.534 35.0815L194.491 29.6714C194.491 29.4138 194.549 29.1419 194.664 28.8556C194.75 28.6266 194.865 28.3833 195.009 28.1257C195.152 27.8681 195.382 27.6248 195.699 27.3958C196.072 27.1381 196.504 27.0093 196.992 27.0093C197.481 26.9807 197.941 27.0666 198.372 27.2669C198.832 27.4387 199.206 27.7249 199.494 28.1257C199.81 28.4978 199.968 28.9415 199.968 29.4567L200.011 35.0815C200.701 35.0815 201.334 35.0815 201.909 35.0815C202.512 35.0529 203.102 35.0385 203.677 35.0385C204.281 35.0385 204.87 35.0529 205.445 35.0815C206.049 35.0815 206.681 35.0815 207.342 35.0815C207.86 35.1101 208.363 35.1101 208.852 35.0815C209.341 35.0242 209.815 35.0242 210.275 35.0815Z" fill="white"/>
<path d="M163.631 9.31923C164.551 9.31923 165.299 9.47667 165.874 9.79154C166.449 10.1064 166.894 10.5215 167.21 11.0367C167.527 11.552 167.742 12.1531 167.857 12.8401C168.001 13.4984 168.073 14.1711 168.073 14.8581V35.7685C168.073 35.7971 168.059 35.9688 168.03 36.2837C168.03 36.5699 168.001 36.9134 167.944 37.3142C167.886 37.7149 167.8 38.13 167.685 38.5594C167.599 38.9887 167.469 39.3465 167.297 39.6328C167.067 39.9763 166.722 40.2482 166.262 40.4486C165.83 40.649 165.385 40.7921 164.925 40.878C164.494 40.9925 164.091 41.0497 163.717 41.0497C163.344 41.0783 163.142 41.0926 163.114 41.0926H154.877C154.618 41.0926 154.215 41.064 153.669 41.0068C153.152 40.9781 152.605 40.878 152.03 40.7062C151.455 40.5631 150.909 40.3341 150.392 40.0192C149.903 39.7043 149.543 39.275 149.313 38.7311C148.911 37.7865 148.681 36.7989 148.623 35.7685C148.595 34.738 148.595 33.7218 148.623 32.7199V17.2626C148.623 17.1767 148.595 16.8905 148.537 16.4038C148.508 15.8886 148.494 15.3161 148.494 14.6864C148.494 14.028 148.537 13.3696 148.623 12.7113C148.71 12.0243 148.868 11.4518 149.098 10.9938C149.385 10.4213 149.773 10.0062 150.262 9.7486C150.751 9.49098 151.283 9.33354 151.858 9.27629C152.462 9.19042 153.065 9.17611 153.669 9.23336C154.302 9.26198 154.877 9.27629 155.394 9.27629H159.017C159.218 9.33354 159.563 9.36217 160.052 9.36217C160.54 9.33354 160.914 9.31923 161.173 9.31923H163.631ZM178.466 39.0746C178.409 39.4181 178.366 39.7473 178.337 40.0622C178.308 40.4057 178.236 40.7491 178.121 41.0926C178.064 41.2071 178.021 41.3073 177.992 41.3932C177.963 41.4791 177.92 41.5793 177.862 41.6938C177.661 42.0945 177.402 42.4094 177.086 42.6384C176.425 43.0391 175.692 43.1393 174.887 42.9389C174.427 42.8531 174.053 42.6813 173.766 42.4237C173.507 42.1947 173.306 41.8941 173.162 41.522C173.047 41.1785 172.946 40.835 172.86 40.4915C172.802 40.148 172.774 39.8475 172.774 39.5898C172.774 39.3322 172.774 39.1891 172.774 39.1605V13.1406C172.774 12.7971 172.774 12.425 172.774 12.0243C172.774 11.6235 172.802 11.2228 172.86 10.822C172.917 10.4213 173.004 10.0492 173.119 9.70566C173.234 9.36217 173.392 9.09023 173.593 8.88986C173.909 8.57499 174.24 8.38893 174.585 8.33168C174.93 8.2458 175.304 8.20287 175.706 8.20287C176.195 8.20287 176.641 8.34599 177.043 8.63224C177.474 8.88986 177.776 9.26198 177.949 9.7486C178.207 10.3497 178.351 10.9795 178.38 11.6378C178.409 12.2962 178.437 12.9546 178.466 13.6129V13.8276C178.524 16.0317 178.538 18.2931 178.509 20.6117C178.481 22.9303 178.466 25.1201 178.466 27.181V37.5289C178.466 37.7865 178.466 38.0441 178.466 38.3017C178.495 38.5594 178.495 38.817 178.466 39.0746ZM154.144 34.1368C154.172 34.3658 154.259 34.6664 154.402 35.0385C154.575 35.4106 154.819 35.6253 155.135 35.6826C155.337 35.7398 155.466 35.7685 155.524 35.7685C155.61 35.7685 155.782 35.7685 156.041 35.7685C156.156 35.7685 156.386 35.7685 156.731 35.7685C157.076 35.7685 157.435 35.7685 157.809 35.7685C158.183 35.7685 158.528 35.7685 158.844 35.7685C159.189 35.7398 159.434 35.7255 159.577 35.7255C159.922 35.6969 160.267 35.6683 160.612 35.6396C160.957 35.5824 161.274 35.4679 161.561 35.2961C161.877 35.1244 162.05 34.8238 162.079 34.3945C162.107 33.9651 162.107 33.55 162.079 33.1493V32.677C162.079 32.1904 162.079 31.6322 162.079 31.0024C162.079 30.3727 162.079 29.5426 162.079 28.5121C162.079 27.4816 162.079 26.1935 162.079 24.6478C162.079 23.0734 162.079 21.1269 162.079 18.8083C162.079 18.4362 162.064 18.0784 162.035 17.7349C162.007 17.42 161.978 17.1051 161.949 16.7903C161.949 16.4754 161.935 16.2035 161.906 15.9745C161.849 15.4306 161.647 15.1014 161.302 14.9869C160.986 14.8438 160.742 14.7722 160.569 14.7722H160.526L155.998 14.6864C155.308 14.6864 154.877 14.7865 154.704 14.9869C154.56 15.1587 154.431 15.4449 154.316 15.8457C154.259 16.1319 154.201 16.4611 154.144 16.8332C154.115 17.2053 154.115 17.5775 154.144 17.9496V34.1368Z" fill="white"/>
<path d="M129.689 22.5868C127.619 22.5868 125.678 22.5009 123.867 22.3292C122.085 22.1288 120.532 21.7567 119.21 21.2128C117.916 20.669 116.895 19.9104 116.148 18.9372C115.4 17.9353 115.026 16.6472 115.026 15.0728C115.026 13.6416 115.4 12.4537 116.148 11.5091C116.895 10.5358 117.916 9.76295 119.21 9.19045C120.532 8.58933 122.085 8.17428 123.867 7.94528C125.678 7.68766 127.619 7.55885 129.689 7.55885C131.759 7.55885 133.685 7.65903 135.468 7.85941C137.279 8.03115 138.832 8.38896 140.125 8.93283C141.448 9.44808 142.483 10.2066 143.23 11.2085C143.978 12.1817 144.352 13.4698 144.352 15.0728C144.352 16.6472 143.978 17.9353 143.23 18.9372C142.483 19.9104 141.448 20.669 140.125 21.2128C138.832 21.7567 137.279 22.1288 135.468 22.3292C133.685 22.5009 131.759 22.5868 129.689 22.5868ZM142.454 37.6577C142.483 37.6577 142.583 37.6863 142.756 37.7436C142.928 37.8008 143.115 37.8867 143.317 38.0012C143.547 38.1443 143.748 38.3161 143.92 38.5165C144.122 38.7455 144.251 39.0031 144.308 39.2893C144.481 40.3771 144.308 41.2215 143.791 41.8226C143.475 42.2234 143.13 42.4667 142.756 42.5525C142.382 42.6384 142.181 42.6813 142.152 42.6813H118.606C117.513 42.6813 116.651 42.4953 116.018 42.1232C115.386 41.7797 115.07 41.2787 115.07 40.6204V36.799C115.012 36.1692 115.012 35.5252 115.07 34.8668C115.127 34.2657 115.357 33.7791 115.76 33.4069C116.162 33.0348 116.665 32.8488 117.269 32.8488C117.413 32.8488 117.6 32.8631 117.83 32.8917C118.088 32.8917 118.29 32.9203 118.433 32.9776C118.807 33.0921 119.095 33.2638 119.296 33.4928C119.497 33.7218 119.655 33.9938 119.77 34.3086C119.885 34.5949 119.957 34.9097 119.986 35.2532C120.015 35.5681 120.043 35.883 120.072 36.1979C120.072 36.4268 120.086 36.6702 120.115 36.9278C120.144 37.1568 120.187 37.3715 120.245 37.5718C120.302 37.6005 120.561 37.6434 121.021 37.7006C121.51 37.7293 122.257 37.7436 123.263 37.7436C124.126 37.7436 124.888 37.7293 125.549 37.7006C126.239 37.672 126.598 37.6577 126.627 37.6577H142.454ZM141.117 25.3777C141.606 25.3777 142.123 25.3777 142.67 25.3777C143.245 25.3491 143.762 25.4063 144.222 25.5495C144.711 25.664 145.099 25.9073 145.387 26.2794C145.703 26.6515 145.861 27.224 145.861 27.9969C145.861 28.6839 145.573 29.285 144.998 29.8002C144.538 30.201 143.978 30.43 143.317 30.4872C142.684 30.5159 142.08 30.5159 141.505 30.4872C141.362 30.4586 141.232 30.4443 141.117 30.4443C141.002 30.4443 140.873 30.4443 140.729 30.4443H116.967C116.938 30.4443 116.809 30.4443 116.579 30.4443C116.349 30.4443 116.076 30.4157 115.76 30.3584C115.472 30.3012 115.17 30.2296 114.854 30.1437C114.538 30.0292 114.279 29.8575 114.078 29.6285C113.733 29.2564 113.56 28.7554 113.56 28.1257C113.56 27.5246 113.747 27.038 114.121 26.6658C114.495 26.3223 114.883 26.0361 115.285 25.8071C115.688 25.5781 116.105 25.435 116.536 25.3777C116.622 25.3777 116.708 25.392 116.795 25.4207C116.881 25.4207 116.967 25.4063 117.053 25.3777C117.456 25.3205 117.887 25.3205 118.347 25.3777C118.807 25.4063 119.281 25.4063 119.77 25.3777C121.265 25.3205 122.775 25.3062 124.298 25.3348C125.851 25.3634 127.461 25.3777 129.128 25.3777C130.94 25.3777 132.866 25.3634 134.907 25.3348C136.948 25.3062 138.947 25.3205 140.902 25.3777H141.117ZM129.689 12.3678C128.625 12.3678 127.561 12.4107 126.498 12.4966C125.463 12.5539 124.528 12.6827 123.695 12.883C122.861 13.0834 122.185 13.3697 121.668 13.7418C121.15 14.0853 120.891 14.529 120.891 15.0728C120.891 16.0461 121.668 16.776 123.22 17.2626C124.801 17.7206 126.958 17.921 129.689 17.8637C130.753 17.8637 131.802 17.8351 132.837 17.7779C133.901 17.7206 134.85 17.6061 135.683 17.4344C136.517 17.234 137.193 16.9477 137.71 16.5756C138.228 16.2035 138.487 15.7026 138.487 15.0728C138.487 14.529 138.228 14.0853 137.71 13.7418C137.193 13.3697 136.517 13.0834 135.683 12.883C134.85 12.6827 133.901 12.5539 132.837 12.4966C131.802 12.4107 130.753 12.3678 129.689 12.3678Z" fill="white"/>
<path d="M90.5144 26.0218C90.3131 26.0504 89.8531 26.0647 89.1344 26.0647C88.4444 26.0647 87.6969 26.0647 86.8919 26.0647C86.0869 26.0361 85.325 26.0218 84.6062 26.0218C83.8875 26.0218 83.4131 26.0218 83.1831 26.0218H83.14C82.6225 26.0218 82.105 26.0218 81.5875 26.0218C81.0987 25.9932 80.6243 25.9502 80.1643 25.893C79.7043 25.8071 79.2874 25.6783 78.9137 25.5065C78.5399 25.3348 78.2381 25.0772 78.0081 24.7337C77.7493 24.3616 77.5624 23.8892 77.4474 23.3167C77.3612 22.7443 77.2893 22.2004 77.2318 21.6851C77.2031 21.1413 77.1887 20.669 77.1887 20.2682C77.2174 19.8675 77.2318 19.6528 77.2318 19.6242V18.6795C77.2318 18.3647 77.2318 18.0069 77.2318 17.6061C77.2318 17.2054 77.2462 16.7617 77.2749 16.2751C77.2749 15.7598 77.2749 15.3018 77.2749 14.9011C77.3037 14.5003 77.3181 14.1425 77.3181 13.8277V12.883C77.3181 12.7972 77.3181 12.6397 77.3181 12.4107C77.3181 12.1817 77.3324 11.9384 77.3612 11.6808C77.3899 11.3946 77.4331 11.1226 77.4906 10.865C77.5481 10.5788 77.6343 10.3498 77.7493 10.178C78.0081 9.77727 78.2668 9.49102 78.5256 9.31927C78.8131 9.1189 79.1724 8.97578 79.6037 8.8899C79.7475 8.86128 79.9631 8.84697 80.2506 8.84697C80.5381 8.81834 80.8112 8.78972 81.07 8.76109C81.3862 8.73247 81.7168 8.71815 82.0618 8.71815H91.8081C92.4406 8.71815 93.1019 8.7754 93.7919 8.8899C94.5107 8.97578 95.1432 9.19046 95.6894 9.53396C96.1207 9.79158 96.4225 10.1208 96.595 10.5215C96.7675 10.9223 96.8825 11.3516 96.94 11.8096C96.9975 12.2676 97.0119 12.7399 96.9832 13.2265C96.9544 13.6845 96.94 14.1139 96.94 14.5147C96.94 14.9727 96.9257 15.2875 96.8969 15.4593C96.8969 15.6024 96.9113 15.903 96.94 16.361V18.7225C96.9113 18.8656 96.8969 19.023 96.8969 19.1948C96.9257 19.3665 96.94 19.5383 96.94 19.71C96.8825 20.0822 96.8682 20.4543 96.8969 20.8264C96.9257 21.1699 96.94 21.542 96.94 21.9428C96.94 22.2576 96.9113 22.6011 96.8538 22.9733C96.825 23.3168 96.7388 23.6746 96.595 24.0467C96.48 24.3902 96.3075 24.705 96.0775 24.9913C95.8763 25.2775 95.6032 25.4779 95.2582 25.5924C94.5107 25.9073 93.72 26.0647 92.8863 26.0647C92.0813 26.0361 91.2906 26.0218 90.5144 26.0218ZM102.589 29.1133C103.394 29.1133 104.113 29.1705 104.746 29.285C105.378 29.3709 106.068 29.6142 106.816 30.0149C107.304 30.3012 107.664 30.7305 107.894 31.303C108.124 31.8755 108.239 32.5053 108.239 33.1923V37.5289C108.239 38.2445 108.239 39.0174 108.239 39.8475C108.239 40.6776 108.066 41.4076 107.721 42.0373C107.52 42.3808 107.247 42.6527 106.902 42.8531C106.557 43.0821 106.183 43.2252 105.781 43.2825C105.407 43.3397 105.033 43.2968 104.659 43.1537C104.314 43.0105 104.041 42.7672 103.84 42.4237C103.351 41.6222 103.107 40.7206 103.107 39.7187C103.107 38.7455 103.093 37.8152 103.064 36.9278V35.7685C103.064 35.1388 102.92 34.7094 102.633 34.4804C102.374 34.2228 101.986 34.0796 101.468 34.051C101.209 34.051 101.023 34.051 100.908 34.051C100.821 34.051 100.735 34.051 100.649 34.051C100.563 34.051 100.462 34.051 100.347 34.051C100.261 34.051 100.088 34.051 99.8294 34.051H98.8807C98.4494 34.051 98.0325 34.051 97.63 34.051C97.2563 34.0224 96.9113 33.9795 96.595 33.9222V34.9098C96.595 35.3105 96.5088 35.7112 96.3363 36.112C96.1638 36.4841 95.8475 36.8133 95.3875 37.0995C95.0138 37.2999 94.6256 37.4144 94.2232 37.443C93.8206 37.4717 93.3319 37.486 92.7569 37.486H86.245V39.2464H93.1881C93.4469 39.2464 93.6913 39.2464 93.9213 39.2464C94.1513 39.2464 94.3813 39.2607 94.6113 39.2893C95.0713 39.318 95.4738 39.4181 95.8188 39.5899C96.1638 39.7903 96.4082 40.1194 96.5519 40.5774C96.8969 41.6652 96.5375 42.4237 95.4738 42.8531C95.1288 42.9962 94.7694 43.0821 94.3956 43.1107C94.0506 43.1394 93.72 43.1537 93.4038 43.1537H86.935C86.36 43.1537 85.7562 43.1537 85.1237 43.1537C84.52 43.1537 83.9018 43.125 83.2693 43.0678C82.6656 43.0392 82.1625 42.8102 81.76 42.3808C81.3575 41.9801 81.1274 41.4505 81.07 40.7921C81.0125 40.3055 80.9693 40.0049 80.9406 39.8904C80.9406 39.7759 80.9406 39.5183 80.9406 39.1176V37.486C80.9118 37.1711 80.9118 36.799 80.9406 36.3696C80.9693 35.9116 81.1275 35.5252 81.415 35.2103C81.7887 34.7809 82.3062 34.509 82.9675 34.3945C83.6575 34.28 84.3187 34.2228 84.9512 34.2228C85.0662 34.2228 85.21 34.2228 85.3825 34.2228C85.5837 34.2228 85.9 34.2371 86.3312 34.2657C86.7912 34.2657 87.4237 34.2657 88.2287 34.2657C89.0625 34.2657 90.1981 34.2657 91.6356 34.2657V32.677H86.0294C85.8569 32.677 85.6844 32.677 85.5119 32.677C85.3681 32.6484 85.2243 32.6484 85.0806 32.677H84.0025C83.715 32.677 83.4562 32.677 83.2262 32.677C82.9962 32.677 82.7662 32.6484 82.5362 32.5912C82.2775 32.5339 82.0475 32.4767 81.8462 32.4194C81.645 32.3622 81.4725 32.219 81.3287 31.99C81.1275 31.6752 80.9981 31.3746 80.9406 31.0884C80.8831 30.7735 80.9118 30.43 81.0268 30.0579C81.1131 29.8289 81.2425 29.6428 81.415 29.4997C81.5875 29.3566 81.7887 29.2421 82.0187 29.1562C82.2487 29.0703 82.4643 29.0131 82.6656 28.9844C82.8956 28.9272 83.0968 28.8843 83.2693 28.8556C83.4993 28.827 83.715 28.8127 83.9162 28.8127C84.1462 28.7841 84.3906 28.7698 84.6493 28.7698H85.3825C85.5262 28.7984 85.6556 28.8127 85.7706 28.8127C85.8856 28.8127 86.015 28.8127 86.1587 28.8127H92.0669C93.7344 28.8127 94.9419 29.1133 95.6894 29.7144C96.0632 29.4567 96.4657 29.2993 96.8969 29.2421C97.3282 29.1562 97.6444 29.1133 97.8457 29.1133H102.589ZM107.506 20.397V24.3043C107.506 25.0485 107.29 25.7069 106.859 26.2794C106.428 26.8233 105.766 27.0952 104.875 27.0952C104.386 27.0952 103.984 26.995 103.668 26.7947C103.093 26.4512 102.719 26.0361 102.546 25.5495C102.403 25.0342 102.331 24.6621 102.331 24.4331V11.5949C102.302 11.4804 102.316 11.1656 102.374 10.6503C102.431 10.1351 102.546 9.70571 102.719 9.36221C103.006 8.76109 103.581 8.4176 104.444 8.33172C105.508 8.1886 106.298 8.40328 106.816 8.97578C106.988 9.20478 107.103 9.43377 107.161 9.66277C107.247 9.86314 107.319 10.0778 107.376 10.3068C107.463 10.5644 107.506 10.9366 107.506 11.4232C107.534 11.9098 107.534 12.2962 107.506 12.5825V15.631C107.621 15.631 107.836 15.6453 108.153 15.674C108.469 15.674 108.799 15.6883 109.144 15.7169C109.489 15.7169 109.82 15.7312 110.136 15.7598C110.453 15.7885 110.683 15.8171 110.826 15.8457C111.401 15.9602 111.804 16.132 112.034 16.361C112.264 16.5613 112.408 16.8189 112.465 17.1338C112.551 17.4487 112.594 17.8208 112.594 18.2502C112.594 18.6509 112.508 18.9944 112.336 19.2807C111.991 19.8532 111.473 20.1823 110.783 20.2682C110.093 20.3255 109.331 20.3684 108.498 20.397H107.506ZM84.9944 14.0853C84.7356 14.0853 84.4912 14.0853 84.2612 14.0853C84.06 14.0853 83.8731 14.1139 83.7006 14.1712C83.2981 14.1998 82.9675 14.3715 82.7087 14.6864C82.5937 14.8295 82.5218 15.0442 82.4931 15.3305C82.4931 15.6167 82.4931 15.7885 82.4931 15.8457V16.7903C82.4643 17.0193 82.45 17.234 82.45 17.4344C82.45 17.6061 82.45 17.7636 82.45 17.9067V18.4219C82.45 18.4219 82.45 18.5078 82.45 18.6795C82.45 18.8513 82.45 19.0517 82.45 19.2807C82.4787 19.5097 82.5218 19.7387 82.5793 19.9677C82.6368 20.1967 82.7375 20.397 82.8812 20.5688C83.1112 20.855 83.485 21.0268 84.0025 21.084C84.52 21.1126 85.0375 21.127 85.555 21.127H85.5981C86.3456 21.0983 86.9637 21.0983 87.4525 21.127C87.9412 21.127 88.5737 21.127 89.35 21.127C89.58 21.127 89.81 21.1413 90.04 21.1699C90.2988 21.1699 90.5431 21.1413 90.7731 21.084C91.0031 21.0554 91.1613 20.9838 91.2475 20.8693C91.3338 20.7548 91.4056 20.6117 91.4631 20.44C91.5206 20.211 91.5494 20.0249 91.5494 19.8818C91.6644 19.3379 91.7219 18.7225 91.7219 18.0355C91.7219 17.5775 91.7219 17.2626 91.7219 17.0909C91.7506 16.9191 91.7506 16.6043 91.7219 16.1463C91.6931 15.9173 91.6788 15.6883 91.6788 15.4593C91.7075 15.2303 91.6931 15.0013 91.6356 14.7723C91.5206 14.4574 91.3338 14.2857 91.075 14.257C90.8163 14.1998 90.5575 14.1712 90.2988 14.1712L84.9944 14.0853Z" fill="white"/>
</svg>
